<svg xmlns="http://www.w3.org/2000/svg" width="17" height="17" viewBox="0 0 26.87 26.87" shape-rendering="geometricPrecision" text-rendering="geometricPrecision" image-rendering="optimizeQuality" fill-rule="evenodd" clip-rule="evenodd"><defs><style>.fil0{fill:#000}</style></defs><g id="Слой_x0020_1"><g id="_2355684743360"><path class="fil0" d="M0 16.79h6.72v-6.72H0zM10.07 16.79h6.72v-6.72h-6.72zM20.15 16.79h6.72v-6.72h-6.72zM10.07 6.72h6.72V0h-6.72zM20.15 6.72h6.72V0h-6.72zM10.07 26.87h6.72v-6.72h-6.72zM20.15 26.87h6.72v-6.72h-6.72zM0 6.72h6.72V0H0zM0 26.87h6.72v-6.72H0z"/><g><path class="fil0" d="M0 16.79h6.72v-6.72H0zM10.07 16.79h6.72v-6.72h-6.72zM20.15 16.79h6.72v-6.72h-6.72zM10.07 6.72h6.72V0h-6.72zM20.15 6.72h6.72V0h-6.72zM10.07 26.87h6.72v-6.72h-6.72zM20.15 26.87h6.72v-6.72h-6.72zM0 6.72h6.72V0H0zM0 26.87h6.72v-6.72H0z"/></g></g></g></svg>