<svg xmlns="http://www.w3.org/2000/svg" width="25.333" height="14.667" viewBox="0 0 670.28 388.06" xmlns:xlink="http://www.w3.org/1999/xlink" shape-rendering="geometricPrecision" text-rendering="geometricPrecision" image-rendering="optimizeQuality" fill-rule="evenodd" clip-rule="evenodd"><defs><clipPath id="id0"><path d="M-17.64 17.66h670.26V405.7H-17.64z"/></clipPath><style>.fil1{fill:#fafafa}</style></defs><g id="Слой_x0020_1"><g clip-path="url(#id0)"><image id="kboard.png" x="-17.64" y="17.66" width="670.26" height="388.04" xlink:href="Безымянный-1_Images\Безымянный-1_ImgID1.png"/></g><g id="_2189911295248"><path d="M123.47 299.87h388.04v35.28H123.47v-35.28zm423.32-70.55h35.28v35.27h-35.28v-35.27zm-70.55 0h35.27v35.27h-35.27v-35.27zm-70.56 0h35.28v35.27h-35.28v-35.27zm-70.55 0h35.28v35.27h-35.28v-35.27zm-70.56 0h35.28v35.27h-35.28v-35.27zm-70.55 0h35.28v35.27h-35.28v-35.27zm-70.55 0h35.27v35.27h-35.27v-35.27zm-70.56 0h35.28v35.27H52.91v-35.27zm493.88-70.55h35.28v35.27h-35.28v-35.27zm-70.55 0h35.27v35.27h-35.27v-35.27zm-70.56 0h35.28v35.27h-35.28v-35.27zm-70.55 0h35.28v35.27h-35.28v-35.27zm-70.56 0h35.28v35.27h-35.28v-35.27zm-70.55 0h35.28v35.27h-35.28v-35.27zm-70.55 0h35.27v35.27h-35.27v-35.27zm-70.56 0h35.28v35.27H52.91v-35.27zm493.88-70.56h35.28v35.28h-35.28V88.21zm-70.55 0h35.27v35.28h-35.27V88.21zm-70.56 0h35.28v35.28h-35.28V88.21zm-70.55 0h35.28v35.28h-35.28V88.21zm-70.56 0h35.28v35.28h-35.28V88.21zm-70.55 0h35.28v35.28h-35.28V88.21zm-70.55 0h35.27v35.28h-35.27V88.21zm-70.56 0h35.28v35.28H52.91V88.21zM652.62 405.7V17.66H-17.64V405.7h670.26z" fill="#7b7b7b"/><path class="fil1" d="M123.47 335.15h388.04v-35.28H123.47zM52.91 123.49h35.28V88.21H52.91zM194.02 123.49h35.28V88.21h-35.28zM264.57 123.49h35.28V88.21h-35.28zM335.13 123.49h35.28V88.21h-35.28zM405.68 123.49h35.28V88.21h-35.28zM546.79 123.49h35.28V88.21h-35.28zM123.47 123.49h35.27V88.21h-35.27zM476.24 123.49h35.27V88.21h-35.27zM52.91 194.04h35.28v-35.27H52.91zM194.02 194.04h35.28v-35.27h-35.28zM264.57 194.04h35.28v-35.27h-35.28zM335.13 194.04h35.28v-35.27h-35.28zM405.68 194.04h35.28v-35.27h-35.28zM546.79 194.04h35.28v-35.27h-35.28zM52.91 264.59h35.28v-35.27H52.91zM194.02 264.59h35.28v-35.27h-35.28zM264.57 264.59h35.28v-35.27h-35.28zM335.13 264.59h35.28v-35.27h-35.28zM405.68 264.59h35.28v-35.27h-35.28zM546.79 264.59h35.28v-35.27h-35.28zM123.47 194.04h35.27v-35.27h-35.27zM476.24 194.04h35.27v-35.27h-35.27zM123.47 264.59h35.27v-35.27h-35.27zM476.24 264.59h35.27v-35.27h-35.27z"/></g></g></svg>