<?xml version="1.0" encoding="UTF-8"?>
<!DOCTYPE svg PUBLIC "-//W3C//DTD SVG 1.1//EN" "http://www.w3.org/Graphics/SVG/1.1/DTD/svg11.dtd">
<!-- Creator: CorelDRAW 2019 (64-Bit) -->
<svg xmlns="http://www.w3.org/2000/svg" xml:space="preserve" width="297mm" height="210mm" version="1.1" style="shape-rendering:geometricPrecision; text-rendering:geometricPrecision; image-rendering:optimizeQuality; fill-rule:evenodd; clip-rule:evenodd"
viewBox="0 0 29700 21000"
 xmlns:xlink="http://www.w3.org/1999/xlink">
 <defs>
  <style type="text/css">
   <![CDATA[
    .fil3 {fill:#34A853}
    .fil0 {fill:#4184F3}
    .fil1 {fill:#E94234}
    .fil2 {fill:#FABB04}
   ]]>
  </style>
   <clipPath id="id0">
    <rect x="3221.06" y="4219.18" width="19191.1" height="6491.1"/>
   </clipPath>
 </defs>
 <g id="Слой_x0020_1">
  <metadata id="CorelCorpID_0Corel-Layer"/>
  <g style="clip-path:url(#id0)">
   <image id="googlelogo_color_272x92dp.png" x="3221.06" y="4219.18" width="19191.1" height="6491.1" xlink:href="Google_Title_Images\Google_Title_ImgID1.png"/>
  </g>
  <g id="_2458883307808">
   <path class="fil0" d="M7405.38 13810.79c1345.61,0 2328.33,-869.04 2328.33,-2116.66 0,-364.49 50.91,-529.17 -105.84,-529.17l-2187.22 0 0 635 1587.5 0c-30.35,1362.32 -2049.56,1833.56 -2923.41,665.64 -618.6,-826.77 -443.11,-1996.63 375.72,-2543.05 605.32,-403.95 1345.18,-417.32 1942.07,-21.69 113.67,75.35 133.95,138.75 252.84,170.49l467.11 -450.11c-224.25,-324.42 -987.75,-678.77 -1490.16,-678.77 -902.66,0 -1366.89,156.53 -1984.53,767.13 -308.27,304.76 -539.19,726 -630.53,1168.63 -322.37,1562.12 949.82,2932.56 2368.12,2932.56z"/>
   <path class="fil0" d="M18341.48 13175.79c-844.58,0 -1070.57,-1102.77 -627.53,-1580.02 834.11,-898.52 1980.16,400.69 1234.16,1304.71 -111.59,135.22 -366.79,275.31 -606.63,275.31zm-1552.22 -1058.33l0 246.95c0,868.81 1031.05,1759.04 1976.14,1341.13 207.61,-91.8 200.89,-146.21 352.19,-247.52 0,358.24 -3.1,585.13 -145.75,806.75 -334.6,519.86 -1301.63,359.13 -1441.75,-242.31 -219.49,51.13 -415.51,195.81 -635,246.94 152.27,287.78 244.21,457.07 507.72,656.45 881.65,667.06 2385.06,191.54 2385.06,-1185.61l0 -2998.61 -670.28 0 0 246.95c-415.53,-278.26 -397.99,-317.5 -917.22,-317.5 -705.66,0 -1411.11,738.76 -1411.11,1446.38z"/>
   <path class="fil1" d="M10686.21 12258.57c0,-1004.04 1099.4,-1191.53 1523.85,-677.18 733.55,888.93 -397.7,2170.57 -1251.58,1322.13 -158.51,-157.51 -272.27,-402.56 -272.27,-644.95zm-705.56 0c0,606.02 396.44,1179.71 916.95,1411.39 1575.65,701.31 3000.23,-1207.5 1843.86,-2514.14 -830.2,-938.09 -2760.81,-506.32 -2760.81,1102.75z"/>
   <path class="fil2" d="M14072.87 12258.57c0,-1004.04 1099.41,-1191.53 1523.85,-677.18 733.55,888.93 -397.69,2170.57 -1251.57,1322.13 -158.52,-157.51 -272.28,-402.56 -272.28,-644.95zm-705.55 0c0,606.02 396.43,1179.71 916.94,1411.39 1575.66,701.31 3000.23,-1207.5 1843.87,-2514.14 -575.12,-649.86 -1771.51,-649.86 -2346.63,0 -221.6,250.4 -414.18,642.89 -414.18,1102.75z"/>
   <path class="fil1" d="M21833.98 12152.74c0,-1025.08 1297.6,-1045.29 1340.55,-529.17 -196.33,45.74 -452.46,181.79 -654.96,262.27 -226.63,90.07 -457.63,213.79 -685.59,266.9zm-705.56 0c0,1597.9 1564.86,1954.99 2357.28,1440.05 178.48,-115.97 448.3,-299.96 500.22,-522.83 -202.82,-54.15 -342.83,-265.87 -564.44,-317.5 -70.41,263.67 -893.72,842.74 -1481.67,-35.28l2081.39 -846.66c-20.81,-250.07 -288.6,-651.49 -430.96,-803.77 -778.63,-832.91 -2461.82,-313.21 -2461.82,1085.99z"/>
   <polygon class="fil3" points="20211.2,13704.96 20846.2,13704.96 20846.2,9118.86 20211.2,9118.86 "/>
  </g>
 </g>
</svg>
