<svg xmlns="http://www.w3.org/2000/svg" width="191mm" height="240" viewBox="0 0 19100 6350" shape-rendering="geometricPrecision" text-rendering="geometricPrecision" image-rendering="optimizeQuality" fill-rule="evenodd" clip-rule="evenodd"><defs><style>.fil3{fill:#34a853}.fil0{fill:#4184f3}.fil1{fill:#e94234}.fil2{fill:#fabb04}</style></defs><g id="Слой_x0020_1"><g id="_2319362927968"><path class="fil0" d="M-108.53-16133.8c1345.61 0 2328.33-869.04 2328.33-2116.66 0-364.49 50.91-529.17-105.84-529.17H-73.26v635h1587.5c-30.35 1362.32-2049.56 1833.56-2923.41 665.64-618.6-826.77-443.11-1996.63 375.72-2543.05 605.32-403.95 1345.18-417.32 1942.07-21.69 113.67 75.35 133.95 138.75 252.84 170.49l467.11-450.11c-224.25-324.42-987.75-678.77-1490.16-678.77-902.66 0-1366.89 156.53-1984.53 767.13-308.27 304.76-539.19 726-630.53 1168.63-322.37 1562.12 949.82 2932.56 2368.12 2932.56zM10827.57-16768.8c-844.58 0-1070.57-1102.77-627.53-1580.02 834.11-898.52 1980.16 400.69 1234.16 1304.71-111.59 135.22-366.79 275.31-606.63 275.31zm-1552.22-1058.33v246.95c0 868.81 1031.05 1759.04 1976.14 1341.13 207.61-91.8 200.89-146.21 352.19-247.52 0 358.24-3.1 585.13-145.75 806.75-334.6 519.86-1301.63 359.13-1441.75-242.31-219.49 51.13-415.51 195.81-635 246.94 152.27 287.78 244.21 457.07 507.72 656.45 881.65 667.06 2385.06 191.54 2385.06-1185.61v-2998.61h-670.28v246.95c-415.53-278.26-397.99-317.5-917.22-317.5-705.66 0-1411.11 738.76-1411.11 1446.38z"/><path class="fil1" d="M3172.3-17686.02c0-1004.04 1099.4-1191.53 1523.85-677.18 733.55 888.93-397.7 2170.57-1251.58 1322.13-158.51-157.51-272.27-402.56-272.27-644.95zm-705.56 0c0 606.02 396.44 1179.71 916.95 1411.39 1575.65 701.31 3000.23-1207.5 1843.86-2514.14-830.2-938.09-2760.81-506.32-2760.81 1102.75z"/><path class="fil2" d="M6558.96-17686.02c0-1004.04 1099.41-1191.53 1523.85-677.18 733.55 888.93-397.69 2170.57-1251.57 1322.13-158.52-157.51-272.28-402.56-272.28-644.95zm-705.55 0c0 606.02 396.43 1179.71 916.94 1411.39 1575.66 701.31 3000.23-1207.5 1843.87-2514.14-575.12-649.86-1771.51-649.86-2346.63 0-221.6 250.4-414.18 642.89-414.18 1102.75z"/><path class="fil1" d="M14320.07-17791.85c0-1025.08 1297.6-1045.29 1340.55-529.17-196.33 45.74-452.46 181.79-654.96 262.27-226.63 90.07-457.63 213.79-685.59 266.9zm-705.56 0c0 1597.9 1564.86 1954.99 2357.28 1440.05 178.48-115.97 448.3-299.96 500.22-522.83-202.82-54.15-342.83-265.87-564.44-317.5-70.41 263.67-893.72 842.74-1481.67-35.28l2081.39-846.66c-20.81-250.07-288.6-651.49-430.96-803.77-778.63-832.91-2461.82-313.21-2461.82 1085.99z"/><path class="fil3" d="M12697.29-16239.63h635v-4586.1h-635z"/></g><g id="_2319362956480"><path class="fil0" d="M2449.65 4904.36c1345.61 0 2328.33-869.04 2328.33-2116.66 0-364.49 50.91-529.17-105.84-529.17H2484.92v635h1587.5c-30.35 1362.32-2049.56 1833.56-2923.41 665.64-618.6-826.77-443.11-1996.63 375.72-2543.05 605.32-403.95 1345.18-417.32 1942.07-21.69 113.67 75.35 133.95 138.75 252.84 170.49l467.11-450.11C3962.5 390.39 3199 36.04 2696.59 36.04c-902.66 0-1366.89 156.53-1984.53 767.13-308.27 304.76-539.19 726-630.53 1168.63-322.37 1562.12 949.82 2932.56 2368.12 2932.56zM13385.75 4269.36c-844.58 0-1070.57-1102.77-627.53-1580.02 834.11-898.52 1980.16 400.69 1234.16 1304.71-111.59 135.22-366.79 275.31-606.63 275.31zm-1552.22-1058.33v246.95c0 868.81 1031.05 1759.04 1976.14 1341.13 207.61-91.8 200.89-146.21 352.19-247.52 0 358.24-3.1 585.13-145.75 806.75-334.6 519.86-1301.63 359.13-1441.75-242.31-219.49 51.13-415.51 195.81-635 246.94 152.27 287.78 244.21 457.07 507.72 656.45 881.65 667.06 2385.06 191.54 2385.06-1185.61V1835.2h-670.28v246.95c-415.53-278.26-397.99-317.5-917.22-317.5-705.66 0-1411.11 738.76-1411.11 1446.38z"/><path class="fil1" d="M5730.48 3352.14c0-1004.04 1099.4-1191.53 1523.85-677.18 733.55 888.93-397.7 2170.57-1251.58 1322.13-158.51-157.51-272.27-402.56-272.27-644.95zm-705.56 0c0 606.02 396.44 1179.71 916.95 1411.39 1575.65 701.31 3000.23-1207.5 1843.86-2514.14-830.2-938.09-2760.81-506.32-2760.81 1102.75z"/><path class="fil2" d="M9117.14 3352.14c0-1004.04 1099.41-1191.53 1523.85-677.18 733.55 888.93-397.69 2170.57-1251.57 1322.13-158.52-157.51-272.28-402.56-272.28-644.95zm-705.55 0c0 606.02 396.43 1179.71 916.94 1411.39 1575.66 701.31 3000.23-1207.5 1843.87-2514.14-575.12-649.86-1771.51-649.86-2346.63 0-221.6 250.4-414.18 642.89-414.18 1102.75z"/><path class="fil1" d="M16878.25 3246.31c0-1025.08 1297.6-1045.29 1340.55-529.17-196.33 45.74-452.46 181.79-654.96 262.27-226.63 90.07-457.63 213.79-685.59 266.9zm-705.56 0c0 1597.9 1564.86 1954.99 2357.28 1440.05 178.48-115.97 448.3-299.96 500.22-522.83-202.82-54.15-342.83-265.87-564.44-317.5-70.41 263.67-893.72 842.74-1481.67-35.28l2081.39-846.66c-20.81-250.07-288.6-651.49-430.96-803.77-778.63-832.91-2461.82-313.21-2461.82 1085.99z"/><path class="fil3" d="M15255.47 4798.53h635V212.43h-635z"/></g></g></svg>